<mxfile host="app.diagrams.net" agent="Mozilla/5.0 (Windows NT 10.0; Win64; x64) AppleWebKit/537.36 (KHTML, like Gecko) Chrome/136.0.0.0 Safari/537.36" version="27.0.3">
  <diagram name="第 1 页" id="l-_PGPl6-ApeY0GYRnsC">
    <mxGraphModel dx="1042" dy="570" grid="1" gridSize="10" guides="1" tooltips="1" connect="1" arrows="1" fold="1" page="1" pageScale="1" pageWidth="827" pageHeight="1169" math="0" shadow="0">
      <root>
        <mxCell id="0" />
        <mxCell id="1" parent="0" />
        <mxCell id="AUeRixgY6eoAwvdm6V__-1" value="" style="rounded=0;whiteSpace=wrap;html=1;" vertex="1" parent="1">
          <mxGeometry x="60" y="10" width="740" height="630" as="geometry" />
        </mxCell>
        <mxCell id="AUeRixgY6eoAwvdm6V__-2" value="" style="rounded=1;whiteSpace=wrap;html=1;" vertex="1" parent="1">
          <mxGeometry x="70" y="30" width="720" height="140" as="geometry" />
        </mxCell>
        <mxCell id="AUeRixgY6eoAwvdm6V__-3" value="React" style="rounded=1;whiteSpace=wrap;html=1;" vertex="1" parent="1">
          <mxGeometry x="140" y="80" width="120" height="60" as="geometry" />
        </mxCell>
        <mxCell id="AUeRixgY6eoAwvdm6V__-4" value="React Query" style="rounded=1;whiteSpace=wrap;html=1;" vertex="1" parent="1">
          <mxGeometry x="270" y="80" width="120" height="60" as="geometry" />
        </mxCell>
        <mxCell id="AUeRixgY6eoAwvdm6V__-5" value="Ant Design" style="rounded=1;whiteSpace=wrap;html=1;" vertex="1" parent="1">
          <mxGeometry x="400" y="80" width="120" height="60" as="geometry" />
        </mxCell>
        <mxCell id="AUeRixgY6eoAwvdm6V__-6" value="Three.js" style="rounded=1;whiteSpace=wrap;html=1;" vertex="1" parent="1">
          <mxGeometry x="530" y="80" width="120" height="60" as="geometry" />
        </mxCell>
        <mxCell id="AUeRixgY6eoAwvdm6V__-7" value="Zustand" style="rounded=1;whiteSpace=wrap;html=1;" vertex="1" parent="1">
          <mxGeometry x="660" y="80" width="120" height="60" as="geometry" />
        </mxCell>
        <mxCell id="AUeRixgY6eoAwvdm6V__-8" value="浏览器Web访问" style="text;strokeColor=none;align=center;fillColor=none;html=1;verticalAlign=middle;whiteSpace=wrap;rounded=0;" vertex="1" parent="1">
          <mxGeometry x="360" y="40" width="90" height="30" as="geometry" />
        </mxCell>
        <mxCell id="AUeRixgY6eoAwvdm6V__-9" value="表示层" style="text;strokeColor=none;align=center;fillColor=none;html=1;verticalAlign=middle;whiteSpace=wrap;rounded=0;" vertex="1" parent="1">
          <mxGeometry x="50" y="95" width="90" height="30" as="geometry" />
        </mxCell>
        <mxCell id="AUeRixgY6eoAwvdm6V__-10" value="" style="rounded=1;whiteSpace=wrap;html=1;" vertex="1" parent="1">
          <mxGeometry x="70" y="180" width="720" height="140" as="geometry" />
        </mxCell>
        <mxCell id="AUeRixgY6eoAwvdm6V__-11" value="应用层" style="text;strokeColor=none;align=center;fillColor=none;html=1;verticalAlign=middle;whiteSpace=wrap;rounded=0;" vertex="1" parent="1">
          <mxGeometry x="50" y="257.5" width="90" height="25" as="geometry" />
        </mxCell>
        <mxCell id="AUeRixgY6eoAwvdm6V__-12" value="系统管理" style="rounded=1;whiteSpace=wrap;html=1;" vertex="1" parent="1">
          <mxGeometry x="150" y="237.5" width="120" height="60" as="geometry" />
        </mxCell>
        <mxCell id="AUeRixgY6eoAwvdm6V__-14" value="量子模拟" style="rounded=1;whiteSpace=wrap;html=1;" vertex="1" parent="1">
          <mxGeometry x="310" y="237.5" width="120" height="60" as="geometry" />
        </mxCell>
        <mxCell id="AUeRixgY6eoAwvdm6V__-15" value="算法模拟" style="rounded=1;whiteSpace=wrap;html=1;" vertex="1" parent="1">
          <mxGeometry x="450" y="240" width="120" height="60" as="geometry" />
        </mxCell>
        <mxCell id="AUeRixgY6eoAwvdm6V__-16" value="数据管理" style="rounded=1;whiteSpace=wrap;html=1;" vertex="1" parent="1">
          <mxGeometry x="590" y="240" width="120" height="60" as="geometry" />
        </mxCell>
        <mxCell id="AUeRixgY6eoAwvdm6V__-18" value="功能" style="text;strokeColor=none;align=center;fillColor=none;html=1;verticalAlign=middle;whiteSpace=wrap;rounded=0;" vertex="1" parent="1">
          <mxGeometry x="360" y="190" width="90" height="25" as="geometry" />
        </mxCell>
        <mxCell id="AUeRixgY6eoAwvdm6V__-19" value="" style="rounded=1;whiteSpace=wrap;html=1;" vertex="1" parent="1">
          <mxGeometry x="70" y="330" width="720" height="140" as="geometry" />
        </mxCell>
        <mxCell id="AUeRixgY6eoAwvdm6V__-20" value="&lt;span style=&quot;color: rgba(0, 0, 0, 0); font-family: monospace; font-size: 0px; text-align: start; text-wrap-mode: nowrap;&quot;&gt;%3CmxGraphModel%3E%3Croot%3E%3CmxCell%20id%3D%220%22%2F%3E%3CmxCell%20id%3D%221%22%20parent%3D%220%22%2F%3E%3CmxCell%20id%3D%222%22%20value%3D%22%E5%BA%94%E7%94%A8%E5%B1%82%22%20style%3D%22text%3BstrokeColor%3Dnone%3Balign%3Dcenter%3BfillColor%3Dnone%3Bhtml%3D1%3BverticalAlign%3Dmiddle%3BwhiteSpace%3Dwrap%3Brounded%3D0%3B%22%20vertex%3D%221%22%20parent%3D%221%22%3E%3CmxGeometry%20x%3D%2250%22%20y%3D%22257.5%22%20width%3D%2290%22%20height%3D%2225%22%20as%3D%22geometry%22%2F%3E%3C%2FmxCell%3E%3C%2Froot%3E%3C%2FmxGraphModel%3E&lt;/span&gt;" style="rounded=1;whiteSpace=wrap;html=1;" vertex="1" parent="1">
          <mxGeometry x="70" y="480" width="720" height="140" as="geometry" />
        </mxCell>
        <mxCell id="AUeRixgY6eoAwvdm6V__-21" value="数据层" style="text;strokeColor=none;align=center;fillColor=none;html=1;verticalAlign=middle;whiteSpace=wrap;rounded=0;" vertex="1" parent="1">
          <mxGeometry x="50" y="400" width="90" height="25" as="geometry" />
        </mxCell>
        <mxCell id="AUeRixgY6eoAwvdm6V__-22" value="基础设施层" style="text;strokeColor=none;align=center;fillColor=none;html=1;verticalAlign=middle;whiteSpace=wrap;rounded=0;" vertex="1" parent="1">
          <mxGeometry x="60" y="550" width="90" height="25" as="geometry" />
        </mxCell>
        <mxCell id="AUeRixgY6eoAwvdm6V__-24" value="基础信息&lt;div&gt;（人员，路由等）&lt;/div&gt;" style="shape=cylinder3;whiteSpace=wrap;html=1;boundedLbl=1;backgroundOutline=1;size=15;" vertex="1" parent="1">
          <mxGeometry x="650" y="360" width="120" height="80" as="geometry" />
        </mxCell>
        <mxCell id="AUeRixgY6eoAwvdm6V__-25" value="开发信息" style="shape=cylinder3;whiteSpace=wrap;html=1;boundedLbl=1;backgroundOutline=1;size=15;" vertex="1" parent="1">
          <mxGeometry x="170" y="380" width="100" height="60" as="geometry" />
        </mxCell>
        <mxCell id="AUeRixgY6eoAwvdm6V__-26" value="算法数据" style="shape=cylinder3;whiteSpace=wrap;html=1;boundedLbl=1;backgroundOutline=1;size=15;" vertex="1" parent="1">
          <mxGeometry x="314" y="380" width="100" height="60" as="geometry" />
        </mxCell>
        <mxCell id="AUeRixgY6eoAwvdm6V__-27" value="操作记录" style="shape=cylinder3;whiteSpace=wrap;html=1;boundedLbl=1;backgroundOutline=1;size=15;" vertex="1" parent="1">
          <mxGeometry x="450" y="380" width="100" height="60" as="geometry" />
        </mxCell>
        <mxCell id="AUeRixgY6eoAwvdm6V__-28" value="物理机" style="rounded=1;whiteSpace=wrap;html=1;" vertex="1" parent="1">
          <mxGeometry x="174" y="520" width="226" height="67.5" as="geometry" />
        </mxCell>
        <mxCell id="AUeRixgY6eoAwvdm6V__-31" value="容器虚拟化（Docker）" style="rounded=1;whiteSpace=wrap;html=1;" vertex="1" parent="1">
          <mxGeometry x="460" y="520" width="226" height="67.5" as="geometry" />
        </mxCell>
        <mxCell id="AUeRixgY6eoAwvdm6V__-33" value="关系型数据库MySQL" style="text;strokeColor=none;align=center;fillColor=none;html=1;verticalAlign=middle;whiteSpace=wrap;rounded=0;" vertex="1" parent="1">
          <mxGeometry x="360" y="340" width="130" height="25" as="geometry" />
        </mxCell>
      </root>
    </mxGraphModel>
  </diagram>
</mxfile>
